<?xml version="1.0" encoding="UTF-8"?>
<svg xmlns="http://www.w3.org/2000/svg" width="237" height="24" viewBox="0 0 237 24" fill="none">
  <path d="M19.7065 16.3435C19.7065 14.4844 18.1951 12.9725 16.3355 12.9725H4.27697V19.7146H16.3355C18.1937 19.7146 19.7065 18.2018 19.7065 16.3435ZM4.27697 8.68422H15.1274C16.3427 8.68422 17.3315 7.69536 17.3315 6.48013C17.3315 5.2649 16.3427 4.27604 15.1274 4.27604H4.27697V8.68422ZM23.9822 16.3449C23.9822 20.5682 20.5601 23.9902 16.3373 23.9902H0.00270575V23.9889H0V0.00357437H15.1288C18.7064 0.00357437 21.6072 2.90434 21.6072 6.48148C21.6072 7.77382 21.2185 8.97056 20.5669 9.98062C22.6231 11.3514 23.9808 13.6863 23.9822 16.3449Z" fill="#1A2744"/>
  <path d="M45.4417 11.9951C45.4417 7.73928 41.9795 4.27893 37.7255 4.27893C33.4711 4.27893 30.0103 7.73928 30.0103 11.9951C30.0103 16.2508 33.4711 19.7112 37.7255 19.7112C41.9795 19.7112 45.4417 16.2508 45.4417 11.9951ZM49.7159 11.9964C49.7159 18.6182 44.3473 23.9868 37.7255 23.9868C31.1047 23.9868 25.7365 18.6182 25.7365 11.9964C25.7365 5.37421 31.1033 0.00601578 37.7255 0.00601578C44.3473 0.00601578 49.7159 5.37421 49.7159 11.9964Z" fill="#1A2744"/>
  <path d="M76.3224 0.000114441V23.9922L72.0337 20.6869L56.6186 8.80477V23.9922H52.3304V0.0857887L56.6186 3.39103L72.0337 15.2728V0.000114441H76.3224Z" fill="#1A2744"/>
  <path d="M99.4487 11.9886C99.4487 7.74319 95.9865 4.28103 91.7411 4.28103H84.0191V19.7106H91.7411C95.9865 19.7106 99.4487 16.2484 99.4487 11.9886ZM103.723 11.9886C103.723 14.9236 102.669 17.6305 100.888 19.7106C100.674 19.9672 100.446 20.2233 100.204 20.4659C98.0382 22.6456 95.0464 23.9849 91.7411 23.9849H79.7453V0.00676537H91.7411C98.3516 0.00676537 103.723 5.36414 103.723 11.9886Z" fill="#1A2744"/>
  <path d="M131.152 0.000114441V11.9964C131.152 18.6213 125.781 23.9922 119.156 23.9922C112.531 23.9922 107.16 18.6213 107.16 11.9964V0.000114441H111.434V11.9964C111.434 16.2562 114.896 19.7184 119.156 19.7184C123.416 19.7184 126.878 16.2562 126.878 11.9964V0.000114441H131.152Z" fill="#1A2744"/>
  <path d="M149.713 8.69118C150.026 8.69118 150.325 8.63436 150.61 8.49187C151.408 8.13564 151.907 7.35194 151.907 6.48302C151.907 5.69932 151.494 5.15777 151.252 4.90165C150.966 4.63065 150.468 4.27442 149.713 4.27442H138.857V8.69118H149.713ZM153.981 19.7031L156.161 23.9913H151.36L149.166 19.7031L146.874 15.2065L146.772 15.0167C146.031 13.7915 144.678 12.9654 143.125 12.9654H138.851V23.9927H134.577V0.000602722H149.713C151.508 0.000602722 153.118 0.727036 154.286 1.89537C155.454 3.07768 156.181 4.70189 156.181 6.48302C156.181 9.10422 154.628 11.3696 152.391 12.381C151.807 12.6516 151.18 12.8369 150.525 12.9086H150.519L153.981 19.7031Z" fill="#1A2744"/>
  <path d="M182.67 23.9922H177.869L175.674 19.7039L170.446 9.43155L165.217 19.7039L163.023 23.9922H158.222L160.401 19.7039L170.446 0.000114441L180.49 19.7039L182.67 23.9922Z" fill="#1A2744"/>
  <path d="M208.739 0.000114441V23.9922L204.45 20.6869L189.035 8.80477V23.9922H184.746V0.0857887L189.035 3.39103L204.45 15.2728V0.000114441H208.739Z" fill="#1A2744"/>
  <path d="M236.141 0.0200996V4.29842H226.29V24H222.012V4.29842H212.161V0.0200996H236.141Z" fill="#1A2744"/>
  <path d="M165.781 23.999L170.447 14.8846L174.832 23.999H165.781Z" fill="#07B862"/>
</svg>