<svg id="Layer_1" data-name="Layer 1" xmlns="http://www.w3.org/2000/svg" viewBox="0 0 185.85 30.82">
  <defs>
    <style>
      .cls-1 {
        fill: #006eaa;
      }
    </style>
  </defs>
  <g>
    <g>
      <path class="cls-1" d="M182.61,7.36c-.05-.51-.91-6.57-1-7H181c-.16.46-.46.83-1.36.83-1.28,0-4.12-1-8.13-1-7.13,0-10.91,3.23-10.91,7.15,0,10.89,21.15,7.16,21.17,16.27,0,3.35-2.63,6.09-9.13,6.09-5.16,0-10.81-1.79-13.64-8.3l-.47.1,1.64,8.36h.73c.48-.74,1.56-.77,2.49-.6a35.28,35.28,0,0,0,9.37,1.41c8.56,0,13.12-3.87,13.12-8.67,0-11.13-21.41-8.29-21.41-16.09,0-2.62,2.14-4.77,7.05-4.78,4.54,0,8.56,1.58,10.7,6.35l.42-.08"/>
      <path class="cls-1" d="M20.68,25.43c0,.32,0,1.24.08,1.69a2.76,2.76,0,0,0,3.06,2.48h1.65V30H11.17v-.42H13a2.64,2.64,0,0,0,2.94-2.45c0-.46.06-1.25.06-1.72V3.26c0-.76-.3-1.39-1.54-1.38-1.08,0-4.17,0-5.35.11C3.53,2.29,1.9,6,.55,8.34H0L2.21.48H2.8A3.81,3.81,0,0,0,4.43.8H32.22A3.5,3.5,0,0,0,33.85.48h.6l2.22,7.86h-.55C34.76,6,33.05,2.27,27.6,2c-1.18-.06-4.47-.11-5.36-.11-1.09,0-1.53.53-1.53,1.38l0,22.17"/>
    </g>
    <g>
      <path class="cls-1" d="M136.5,25.43a16.08,16.08,0,0,1-.07,1.71,2.64,2.64,0,0,1-2.93,2.46h-1.79V30h14.15v-.43h-1.64a2.76,2.76,0,0,1-3.06-2.48c-.06-.45-.08-1.37-.08-1.69V18.56c3.77-5.28,6.34-8.76,9.44-13.7,1.33-2.1,2.9-3.43,4.65-3.7l.91-.12V.69L150.79.9,145.31.72v.33l1.44.14c2,.28,2.39,1.85,1.34,3.87a134.28,134.28,0,0,1-7.74,12.29h0l-9-12.69a3.52,3.52,0,0,1-.8-2c0-.82.57-1.3,1.47-1.43L133.3,1V.71l-7,.19L120,.73V1.1l1.11.11c2.47.25,3.47,1.68,4.7,3.34,2.36,3.19,7.86,10.78,10.68,14.55v6.33"/>
      <path class="cls-1" d="M75.93,15.14C76,6.35,68.87,0,58.43,0,47,0,40.46,7,40.36,15.46c-.09,7.84,5.09,15.3,17.07,15.36,11.61,0,18.48-6.72,18.5-15.68m-4.86,1.53c0,8.59-5.17,12.88-12.19,12.91-9.65,0-13.68-7.44-13.68-15.26,0-8.21,4.55-13,11.56-13.1,9.15-.05,14.33,7,14.31,15.45"/>
    </g>
    <path class="cls-1" d="M120.9,29.68l-1-.14c-2.59-.36-4.75-2.71-6.06-4.53-3-4.1-5.55-7.89-6.65-9.51,5.06-1.52,7-4.59,7-7.46s-1.49-5.23-5.3-6.53a21,21,0,0,0-6.65-.89C97.84.62,92.8.9,90.47.9H84.25v.39a21.49,21.49,0,0,1,2.55.25c1.17.28,1.68,1.23,1.68,2.6v21.3h0c0,.46,0,1.26-.06,1.71a2.63,2.63,0,0,1-2.94,2.43H83.71V30H97.78v-.45H96.14a2.76,2.76,0,0,1-3.06-2.48C93,26.65,93,25.74,93,25.42v-9l6.41.06c1.11,0,2.14-.05,3.1-.14L109.22,26c1.25,1.8.56,3.27-1.46,3.52l-1.44.16v.37l7.41-.21,7.17.23v-.39M98.57,15.55,93,15.49C93,8.94,93,2,93,2a40.29,40.29,0,0,1,6-.39,26,26,0,0,1,3.65.21c4.54.72,6.68,3.05,6.68,6.69,0,3.82-2.71,6-6.8,6.77a23.51,23.51,0,0,1-4,.31"/>
  </g>
</svg>
