<svg xmlns="http://www.w3.org/2000/svg" width="151" height="151" viewBox="0 0 151 151" fill="none"><circle cx="75.3184" cy="75.8254" r="75" fill="white"></circle><path d="M103.068 48.4504H47.5684V103.2H103.068V48.4504Z" fill="#ECEFF1"></path><path d="M75.3184 81.5835L103.068 103.201V60.5229L75.3184 81.5835Z" fill="#CFD8DC"></path><path d="M105.381 48.4504H103.068L75.3184 70.0676L47.5684 48.4504H45.2559C41.4264 48.4504 38.3184 51.5164 38.3184 55.2942V96.3567C38.3184 100.134 41.4264 103.2 45.2559 103.2H47.5684V60.5228L75.3184 81.5788L103.068 60.5183V103.2H105.381C109.21 103.2 112.318 100.134 112.318 96.3567V55.2942C112.318 51.5164 109.21 48.4504 105.381 48.4504Z" fill="#F44336"></path></svg>