<svg xmlns="http://www.w3.org/2000/svg" width="150" height="150" viewBox="0 0 150 150" fill="none"><circle cx="75" cy="75" r="75" fill="white"></circle><circle cx="75" cy="75" r="52" fill="#36C836"></circle><path d="M101.304 88.1927L94.4106 81.2976C92.5713 79.4584 89.3578 79.4552 87.5155 81.2976L86.366 82.4471L100.155 96.2354L101.304 95.0863C103.213 93.1775 103.206 90.0918 101.304 88.1927Z" fill="white"></path><path d="M84.0041 84.6819C82.5535 85.8056 80.4842 85.7607 79.1587 84.4324L65.5285 70.7928C64.2 69.4644 64.1553 67.3935 65.279 65.9465L51.5217 52.1899C45.6033 59.0886 45.8347 69.4834 52.3667 76.0153L73.9362 97.5941C80.2043 103.862 90.4716 104.693 97.7621 98.4388L84.0041 84.6819Z" fill="white"></path><path d="M68.6627 55.5423L61.7691 48.6472C59.9298 46.808 56.7163 46.8048 54.874 48.6472L53.7245 49.7968L67.5136 63.585L68.6627 62.4358C70.5713 60.5272 70.565 57.4415 68.6627 55.5423Z" fill="white"></path></svg>