<svg xmlns="http://www.w3.org/2000/svg" width="105" height="95" viewBox="0 0 105 95" fill="none"><path d="M91.9687 28.8971C98.2236 47.4729 74.8624 76.5177 54.5576 84.2166C36.9361 90.1502 17.5803 79.9017 11.3255 61.3259C5.07058 42.7502 14.2851 22.8814 31.9067 16.9478C49.5283 11.0142 85.7138 10.3214 91.9687 28.8971Z" fill="#16163F"></path><path d="M55.6402 50.5625L55.3125 60.0625H47.5938V50.5625H46.4062V60.0625H38.6875L38.3597 50.5625H36.6379L36.3125 60.0625H35.125V64.8125H58.875V60.0625H57.6875L57.3598 50.5625H55.6379H55.6402ZM38.0938 63.0312H36.9062V61.8438H38.0938V63.0312ZM40.4688 63.0312H39.2812V61.8438H40.4688V63.0312ZM42.8438 63.0312H41.6562V61.8438H42.8438V63.0312ZM45.2188 63.0312H44.0312V61.8438H45.2188V63.0312Z" fill="white"></path><path d="M47 45.2188C47.3279 45.2188 47.5938 44.9529 47.5938 44.625C47.5938 44.2971 47.3279 44.0312 47 44.0312C46.6721 44.0312 46.4062 44.2971 46.4062 44.625C46.4062 44.9529 46.6721 45.2188 47 45.2188Z" fill="white"></path><path d="M64.8125 43.4375C64.8122 42.2945 64.537 41.1684 64.0102 40.154C63.4834 39.1396 62.7205 38.2668 61.7857 37.609C60.851 36.9513 59.7718 36.5279 58.6391 36.3746C57.5064 36.2213 56.3535 36.3425 55.2775 36.7281C55.0874 34.6642 54.1332 32.7458 52.6019 31.349C51.0706 29.9523 49.0727 29.178 47 29.178C44.9274 29.178 42.9295 29.9523 41.3982 31.349C39.8669 32.7458 38.9127 34.6642 38.7226 36.7281C37.745 36.3788 36.7028 36.2472 35.6691 36.3427C34.6353 36.4383 33.6349 36.7586 32.7379 37.2812C31.8409 37.8038 31.0689 38.5161 30.476 39.3683C29.8831 40.2205 29.4836 41.192 29.3054 42.2147C29.1273 43.2375 29.1747 44.2868 29.4445 45.2893C29.7144 46.2918 30.2 47.2232 30.8674 48.0183C31.5349 48.8135 32.3681 49.4532 33.3086 49.8927C34.2492 50.3321 35.2744 50.5607 36.3125 50.5625H36.6403L36.9063 42.8438H38.0938L38.3598 50.5625H46.4063V46.297C46.0101 46.1569 45.6762 45.8813 45.4636 45.5189C45.251 45.1565 45.1734 44.7306 45.2444 44.3164C45.3155 43.9023 45.5307 43.5266 45.8519 43.2558C46.1732 42.9849 46.5799 42.8364 47 42.8364C47.4202 42.8364 47.8269 42.9849 48.1482 43.2558C48.4694 43.5266 48.6846 43.9023 48.7556 44.3164C48.8267 44.7306 48.7491 45.1565 48.5364 45.5189C48.3238 45.8813 47.99 46.1569 47.5938 46.297V50.5625H55.6403L55.9063 42.8438H57.0938L57.3598 50.5625H57.6875C59.5772 50.5625 61.3895 49.8118 62.7257 48.4756C64.0619 47.1394 64.8125 45.3272 64.8125 43.4375V43.4375ZM41.9621 49.663C40.626 48.3268 39.8754 46.5146 39.8754 44.625C39.8754 42.7354 40.626 40.9232 41.9621 39.587L42.8016 40.4266C41.6882 41.5401 41.0626 43.0503 41.0626 44.625C41.0626 46.1997 41.6882 47.7099 42.8016 48.8234L41.9621 49.663ZM43.2214 48.4036C42.7252 47.9074 42.3316 47.3183 42.063 46.67C41.7945 46.0217 41.6562 45.3268 41.6562 44.625C41.6562 43.9233 41.7945 43.2284 42.063 42.58C42.3316 41.9317 42.7252 41.3426 43.2214 40.8464L44.061 41.6859C43.675 42.0719 43.3688 42.5301 43.1599 43.0344C42.951 43.5387 42.8435 44.0792 42.8435 44.625C42.8435 45.1709 42.951 45.7113 43.1599 46.2156C43.3688 46.7199 43.675 47.1781 44.061 47.5641L43.2214 48.4036ZM44.625 44.625C44.6242 44.937 44.6853 45.2461 44.8046 45.5344C44.9239 45.8227 45.0992 46.0846 45.3203 46.3047L44.4808 47.1443C44.1499 46.8135 43.8874 46.4207 43.7084 45.9885C43.5293 45.5562 43.4371 45.0929 43.4371 44.625C43.4371 44.1571 43.5293 43.6938 43.7084 43.2616C43.8874 42.8293 44.1499 42.4365 44.4808 42.1057L45.3203 42.9453C45.0992 43.1655 44.9239 43.4273 44.8046 43.7156C44.6853 44.0039 44.6242 44.313 44.625 44.625V44.625ZM48.6798 46.3047C48.9004 46.0842 49.0754 45.8223 49.1948 45.5341C49.3143 45.2459 49.3757 44.937 49.3757 44.625C49.3757 44.313 49.3143 44.0041 49.1948 43.7159C49.0754 43.4277 48.9004 43.1658 48.6798 42.9453L49.5193 42.1057C49.8502 42.4365 50.1127 42.8293 50.2917 43.2616C50.4708 43.6938 50.563 44.1571 50.563 44.625C50.563 45.0929 50.4708 45.5562 50.2917 45.9885C50.1127 46.4207 49.8502 46.8135 49.5193 47.1443L48.6798 46.3047ZM49.9391 47.5641C50.3251 47.1781 50.6313 46.7199 50.8402 46.2156C51.0491 45.7113 51.1566 45.1709 51.1566 44.625C51.1566 44.0792 51.0491 43.5387 50.8402 43.0344C50.6313 42.5301 50.3251 42.0719 49.9391 41.6859L50.7787 40.8464C51.2749 41.3426 51.6685 41.9317 51.9371 42.58C52.2056 43.2284 52.3438 43.9233 52.3438 44.625C52.3438 45.3268 52.2056 46.0217 51.9371 46.67C51.6685 47.3183 51.2749 47.9074 50.7787 48.4036L49.9391 47.5641ZM52.0386 49.6624L51.199 48.8228C52.3123 47.7094 52.9378 46.1993 52.9378 44.6247C52.9378 43.0502 52.3123 41.5401 51.199 40.4266L52.0386 39.587C53.3745 40.9232 54.125 42.7353 54.125 44.6247C54.125 46.5142 53.3745 48.3262 52.0386 49.6624V49.6624Z" fill="white"></path></svg>