<svg xmlns="http://www.w3.org/2000/svg" width="105" height="96" viewBox="0 0 105 96" fill="none"><path d="M91.9687 29.2056C98.2236 47.7813 74.8624 76.8262 54.5576 84.525C36.9361 90.4586 17.5803 80.2101 11.3255 61.6344C5.07058 43.0586 14.2851 23.1899 31.9067 17.2563C49.5283 11.3227 85.7138 10.6298 91.9687 29.2056Z" fill="#16163F"></path><path d="M61.6343 45.4598H57.8479H57.3414C56.222 45.4598 55.3142 46.3677 55.3142 47.4908V47.711C55.3142 48.8352 56.222 49.7436 57.343 49.7436H61.1332H61.6343C62.7559 49.7436 63.6664 48.8314 63.6664 47.711L63.6642 47.4881C63.6664 46.3677 62.7559 45.4598 61.6343 45.4598Z" fill="white"></path><path d="M61.6366 40.393H60.7423V30.5673C60.7423 29.1551 59.5872 28 58.1744 28H41.2331C39.8209 28 38.6657 29.1557 38.6657 30.5673V37.6169C35.2486 39.5486 31.7241 41.5665 31.7165 41.5714C29.8032 42.3589 27 44.8996 27 50.8992C27 51.435 27.0353 51.9296 27.0846 52.4074C27.1003 52.5473 27.1177 52.6818 27.1367 52.8169C27.186 53.1677 27.2478 53.5034 27.3216 53.8223C27.3482 53.9362 27.3688 54.055 27.3975 54.164C27.4968 54.5328 27.6117 54.8787 27.7408 55.2079C27.8059 55.3712 27.8764 55.5198 27.9474 55.6727C28.0233 55.8338 28.0998 55.9921 28.1817 56.1402C28.2766 56.3186 28.3715 56.4905 28.4756 56.6537C28.5006 56.6917 28.5277 56.7264 28.5532 56.7649C31.024 60.4998 35.5821 60.5167 35.5821 60.5167H38.6657V63.4338C38.6657 64.8443 39.8209 65.9995 41.2331 65.9995H58.1739C59.5866 65.9995 60.7417 64.8438 60.7417 63.4338V59.8756H61.1333V59.8735H61.6328C62.7559 59.8735 63.6664 58.9651 63.6643 57.842L63.6664 57.6207C63.6643 56.4992 62.7559 55.5935 61.6344 55.5935H61.1333H57.8474H57.3409C56.2194 55.5935 55.3137 56.5014 55.3137 57.6223V57.8474C55.3137 58.9656 56.2216 59.8773 57.3425 59.8773H58.9554V61.2515H40.4516V42.8177C41.3811 42.2282 42.2418 41.6609 42.7326 41.2807C45.2191 39.3577 47.5792 37.8262 47.8986 36.4373C48.3146 34.6352 46.9312 33.1167 44.5314 34.3635C43.7754 34.7562 42.2239 35.6168 40.4516 36.612V32.0684L58.9554 32.0712V40.3919H57.8474V40.3941H57.3436C56.2215 40.3941 55.311 41.3019 55.311 42.4261V42.6463C55.311 43.77 56.2215 44.6756 57.3409 44.6756H57.8447H61.1306H61.6355C62.7559 44.6756 63.6643 43.7678 63.6643 42.6463V42.4202C63.6664 41.3035 62.7586 40.393 61.6366 40.393ZM49.7013 62.1528C50.4128 62.1528 50.9866 62.7271 50.9866 63.437C50.9866 64.1485 50.4123 64.7207 49.7013 64.7207C48.9925 64.7207 48.4198 64.1469 48.4198 63.437C48.4209 62.7293 48.9952 62.1528 49.7013 62.1528ZM52.4145 30.4719H46.9935C46.8232 30.4719 46.6822 30.3336 46.6822 30.1628C46.6822 29.9892 46.8232 29.8509 46.9935 29.8509H52.4145C52.5848 29.8509 52.7236 29.9887 52.7236 30.1628C52.7236 30.333 52.5848 30.4719 52.4145 30.4719Z" fill="white"></path><path d="M61.6344 50.5267H61.1333H57.3414C56.2221 50.5267 55.3115 51.4373 55.3115 52.5582V52.7806C55.3115 53.9026 56.2199 54.8105 57.3414 54.8105H57.8452H61.1311H61.6333C62.7564 54.8105 63.6621 53.9026 63.6648 52.7806V52.5582C63.6643 51.4373 62.7586 50.5267 61.6344 50.5267Z" fill="white"></path></svg>