<svg xmlns="http://www.w3.org/2000/svg" width="105" height="95" viewBox="0 0 105 95" fill="none"><path d="M91.9687 28.8971C98.2236 47.4729 74.8624 76.5177 54.5576 84.2166C36.9361 90.1502 17.5803 79.9017 11.3255 61.3259C5.07058 42.7502 14.2851 22.8814 31.9067 16.9478C49.5283 11.0142 85.7138 10.3214 91.9687 28.8971Z" fill="#16163F"></path><path d="M46.1614 65.9781C48.9908 65.5761 51.4711 62.6231 53.0319 58.2619C50.7756 57.7566 48.4732 57.4854 46.1614 57.4531V65.9781Z" fill="white"></path><path d="M50.6815 65.2846C50.8488 65.2361 51.0154 65.1874 51.1807 65.1338C51.3202 65.0889 51.4577 65.0405 51.5953 64.9923C51.758 64.9362 51.9201 64.8784 52.0815 64.817C52.2191 64.7647 52.3553 64.7092 52.4919 64.6536C52.6495 64.5875 52.8067 64.5216 52.9624 64.4554C53.0983 64.3957 53.2333 64.333 53.3682 64.2701C53.5209 64.1981 53.673 64.1248 53.8238 64.0486C53.9562 63.9811 54.0882 63.9123 54.2206 63.8416C54.3688 63.7622 54.5161 63.6811 54.6623 63.5978C54.7947 63.5229 54.9222 63.4477 55.0511 63.3702C55.1944 63.2821 55.3371 63.1939 55.4789 63.1058C55.6058 63.025 55.7323 62.943 55.8573 62.8584C55.9968 62.7645 56.1343 62.6666 56.2712 62.5688C56.3942 62.4807 56.5166 62.3928 56.6367 62.3044C56.7691 62.2023 56.9047 62.0968 57.0374 61.9909C57.1553 61.8969 57.2728 61.8036 57.3887 61.707C57.5208 61.5973 57.6473 61.4836 57.7755 61.37C57.8879 61.2702 58.0009 61.1714 58.1107 61.069C58.2369 60.9512 58.3599 60.8291 58.483 60.7081C58.5895 60.6028 58.6973 60.4992 58.8016 60.3913C58.821 60.3713 58.8394 60.3497 58.8594 60.329C57.4171 59.5841 55.898 58.9994 54.3285 58.5854C53.5122 61.1885 52.0596 63.5475 50.1023 65.4479C50.1559 65.434 50.2095 65.4227 50.2631 65.4089C50.4045 65.3691 50.5433 65.3256 50.6815 65.2846V65.2846Z" fill="white"></path><path d="M64.0001 48.1764H56.0714C56.0414 51.2722 55.5923 54.3495 54.7363 57.3249C56.4818 57.7911 58.1663 58.4614 59.7548 59.3219C62.3631 56.1783 63.8561 52.2589 64.0001 48.1764V48.1764Z" fill="white"></path><path d="M46.1614 46.8539H54.749C54.7154 43.8676 54.2773 40.8997 53.4472 38.0309C51.0559 38.5762 48.6136 38.8675 46.1614 38.8998V46.8539Z" fill="white"></path><path d="M46.1614 29.0522V37.5772C48.4732 37.5446 50.7756 37.2737 53.0319 36.7684C51.4711 32.4073 48.9908 29.4542 46.1614 29.0522V29.0522Z" fill="white"></path><path d="M46.1614 56.1305C48.6136 56.1631 51.0559 56.4544 53.4472 56.9997C54.2773 54.1309 54.7154 51.1627 54.749 48.1764H46.1614V56.1305Z" fill="white"></path><path d="M59.7548 35.7084C58.1663 36.5688 56.4818 37.2391 54.7363 37.7054C55.5923 40.6807 56.0414 43.7581 56.0714 46.8539H64.0001C63.8557 42.7717 62.3627 38.8523 59.7548 35.7084V35.7084Z" fill="white"></path><path d="M58.8614 34.7053C58.8421 34.6856 58.8237 34.6643 58.8046 34.644C58.7 34.5361 58.5915 34.4322 58.485 34.3272C58.3623 34.2062 58.2399 34.0838 58.1133 33.9663C58.0039 33.8642 57.8905 33.7677 57.7782 33.666C57.65 33.5523 57.5218 33.4377 57.3901 33.3279C57.2758 33.2314 57.1586 33.139 57.0423 33.0464C56.9099 32.9392 56.7743 32.8326 56.6381 32.7303C56.5186 32.6402 56.3975 32.553 56.2758 32.4658C56.1376 32.3664 55.9988 32.2673 55.858 32.1727C55.7343 32.0894 55.6087 32.008 55.4831 31.9282C55.3401 31.8362 55.1974 31.7461 55.0518 31.659C54.9242 31.5824 54.7954 31.5069 54.6663 31.4336C54.5184 31.349 54.3702 31.267 54.2207 31.1869C54.0883 31.1207 53.9562 31.0487 53.8239 30.9825C53.6718 30.9057 53.5184 30.8317 53.3612 30.7591C53.2288 30.6961 53.0945 30.6348 52.9582 30.5751C52.8016 30.5056 52.6434 30.443 52.4855 30.3768C52.3493 30.3213 52.2137 30.2664 52.0761 30.2141C51.9156 30.1527 51.7529 30.0953 51.5902 30.0391C51.4526 29.9906 51.3151 29.9425 51.1756 29.8973C51.0103 29.8437 50.845 29.795 50.6751 29.7459C50.5376 29.7055 50.3994 29.6645 50.2602 29.6277C50.207 29.6132 50.1527 29.6019 50.0991 29.588C52.0564 31.4885 53.5087 33.8471 54.3253 36.4505C55.8964 36.0366 57.4178 35.4515 58.8614 34.7053V34.7053Z" fill="white"></path><path d="M27 46.8539H34.9286C34.9587 43.7581 35.4078 40.6807 36.2634 37.7054C34.5183 37.2395 32.8338 36.5692 31.2452 35.7084C28.637 38.8519 27.144 42.7717 27 46.8539Z" fill="white"></path><path d="M44.8388 65.9781V57.4531C42.527 57.4857 40.2245 57.7566 37.9683 58.2619C39.5287 62.6231 42.0094 65.5761 44.8388 65.9781Z" fill="white"></path><path d="M44.8389 48.1764H36.2512C36.2848 51.1627 36.7226 54.1309 37.5531 56.9997C39.9443 56.4541 42.3863 56.1628 44.8389 56.1305V48.1764Z" fill="white"></path><path d="M44.8388 29.0522C42.0094 29.4542 39.5287 32.4073 37.9683 36.7684C40.2245 37.2741 42.527 37.5449 44.8388 37.5772V29.0522Z" fill="white"></path><path d="M44.8389 38.8998C42.3866 38.8675 39.9443 38.5762 37.5531 38.0309C36.7226 40.8997 36.2848 43.8676 36.2512 46.8539H44.8389V38.8998Z" fill="white"></path><path d="M40.8958 29.5873C40.8422 29.6012 40.7886 29.6125 40.735 29.6263C40.5949 29.6638 40.4567 29.7055 40.3172 29.7458C40.1513 29.7942 39.9866 29.843 39.82 29.896C39.6795 29.9415 39.5413 29.9899 39.4032 30.038C39.2414 30.0952 39.0793 30.152 38.9192 30.2127C38.781 30.2657 38.6447 30.3205 38.5078 30.3767C38.3506 30.4429 38.193 30.5091 38.0377 30.575C37.9014 30.6347 37.7668 30.6973 37.6318 30.7603C37.4791 30.8323 37.327 30.9056 37.1763 30.9818C37.0439 31.0493 36.9115 31.1184 36.7794 31.1888C36.6312 31.2682 36.4843 31.3496 36.3384 31.4329C36.206 31.5068 36.0759 31.5827 35.9483 31.6602C35.8047 31.7467 35.6626 31.8361 35.5212 31.9246C35.394 32.006 35.2677 32.088 35.1428 32.1726C35.0033 32.2665 34.8657 32.3644 34.7288 32.4622C34.6058 32.5503 34.4834 32.6382 34.363 32.727C34.2277 32.8287 34.0986 32.9346 33.9623 33.0402C33.8448 33.1341 33.7263 33.2274 33.6113 33.3246C33.479 33.4337 33.3534 33.5468 33.2258 33.6598C33.1128 33.7605 32.9988 33.8583 32.8884 33.9626C32.7628 34.0798 32.6404 34.2016 32.5177 34.3223C32.4112 34.4276 32.3027 34.5315 32.1981 34.6397C32.179 34.6597 32.1606 34.6817 32.1406 34.702C33.5826 35.4472 35.1021 36.032 36.6716 36.4459C37.4878 33.8441 38.9395 31.4868 40.8958 29.5873V29.5873Z" fill="white"></path><path d="M32.5148 60.7033C32.6378 60.8243 32.7602 60.9467 32.8864 61.0646C32.9962 61.1663 33.1092 61.2628 33.2219 61.3645C33.3501 61.4785 33.4783 61.5928 33.61 61.7026C33.7243 61.7985 33.8409 61.8911 33.9577 61.9841C34.0901 62.0913 34.2222 62.1979 34.3623 62.3009C34.4814 62.3903 34.6025 62.4768 34.7236 62.5656C34.8618 62.6648 35.0013 62.7639 35.1421 62.8591C35.2657 62.9424 35.3913 63.0238 35.5169 63.1039C35.66 63.1956 35.8027 63.2857 35.9483 63.3728C36.0758 63.4497 36.2047 63.5249 36.3338 63.5985C36.4817 63.6831 36.6299 63.7651 36.7794 63.8449C36.9114 63.9111 37.0438 63.9831 37.1762 64.0493C37.3283 64.1261 37.4816 64.2 37.6389 64.273C37.7713 64.3353 37.9056 64.3967 38.0418 64.4567C38.1984 64.5262 38.3563 64.5888 38.5145 64.655C38.6508 64.7105 38.7864 64.7654 38.9239 64.8177C39.0844 64.8794 39.2471 64.9369 39.4099 64.993C39.5474 65.0411 39.685 65.0896 39.8245 65.1345C39.9898 65.1881 40.1551 65.2371 40.3249 65.2859C40.4625 65.3263 40.6007 65.3673 40.7395 65.4044C40.7931 65.4189 40.8473 65.4302 40.9009 65.4441C38.9436 63.5433 37.4913 61.1847 36.6748 58.5813C35.1053 58.9956 33.5858 59.5803 32.1438 60.3258C32.1632 60.3455 32.1816 60.3668 32.2009 60.3872C32.3001 60.4944 32.4069 60.5983 32.5148 60.7033V60.7033Z" fill="white"></path><path d="M31.2452 59.3219C32.8338 58.4614 34.5183 57.7911 36.2634 57.3249C35.4078 54.3495 34.9587 51.2722 34.9286 48.1764H27C27.1443 52.2586 28.637 56.178 31.2452 59.3219V59.3219Z" fill="white"></path></svg>