<svg xmlns="http://www.w3.org/2000/svg" width="105" height="95" viewBox="0 0 105 95" fill="none"><path d="M91.9687 28.8971C98.2236 47.4729 74.8624 76.5177 54.5576 84.2166C36.9361 90.1502 17.5803 79.9017 11.3255 61.3259C5.07058 42.7502 14.2851 22.8814 31.9067 16.9478C49.5283 11.0142 85.7138 10.3214 91.9687 28.8971Z" fill="#16163F"></path><path d="M47.8208 54.0758H44.1794C43.8444 54.0758 43.5725 54.3471 43.5725 54.6827C43.5725 55.0183 43.8444 55.2895 44.1794 55.2895H47.8208C48.1557 55.2895 48.4276 55.0183 48.4276 54.6827C48.4276 54.3471 48.1557 54.0758 47.8208 54.0758Z" fill="white"></path><path d="M37.5034 38.2965H36.2896V39.5103H37.5034V38.2965Z" fill="white"></path><path d="M44.7863 38.2965H43.5725V39.5103H44.7863V38.2965Z" fill="white"></path><path d="M49.6413 38.2965H48.4275V39.5103H49.6413V38.2965Z" fill="white"></path><path d="M36.8966 35.8689C35.2234 35.8689 33.8621 37.3394 33.8621 39.1461C33.8621 40.3861 35.5759 42.6594 36.8959 44.0912C38.0211 42.8653 39.931 40.5026 39.931 39.1461C39.9311 37.3394 38.5698 35.8689 36.8966 35.8689ZM38.7173 39.5103C38.7173 40.1797 38.1729 40.7241 37.5034 40.7241H36.2896C35.6202 40.7241 35.0758 40.1797 35.0758 39.5103V38.2965C35.0758 37.6271 35.6202 37.0826 36.2896 37.0826H37.5034C38.1728 37.0826 38.7173 37.627 38.7173 38.2965V39.5103Z" fill="white"></path><path d="M61.7786 29.7999H30.2212C28.8823 29.7999 27.793 30.8894 27.793 32.2281V52.2551V55.289C27.793 56.6278 28.8823 57.7172 30.2212 57.7172H42.3293C42.1849 60.1241 41.1835 61.3586 39.324 61.3586H38.1102C37.1064 61.3586 36.2895 62.1755 36.2895 63.1793C36.2895 64.183 37.1064 64.9999 38.1102 64.9999H53.8895C54.8933 64.9999 55.7102 64.183 55.7102 63.1793C55.7102 62.1755 54.8933 61.3586 53.8895 61.3586H52.6757C50.8162 61.3586 49.8148 60.1241 49.6704 57.7172H61.7786C63.1174 57.7172 64.2068 56.6278 64.2068 55.289V52.2551V32.2281C64.2068 30.8894 63.1174 29.7999 61.7786 29.7999ZM30.2205 32.8344C30.2205 32.4988 30.4924 32.2276 30.8274 32.2276H61.1723C61.5073 32.2276 61.7792 32.4988 61.7792 32.8344V51.6482H60.5654V33.4413H31.4344V51.6482H30.2205V32.8344ZM46.6068 45.5793H36.8964C36.8151 45.5793 36.7356 45.5629 36.6616 45.5319C36.5875 45.501 36.522 45.456 36.4661 45.3996C36.4661 45.399 36.4655 45.399 36.4649 45.399C36.0741 45.0045 32.6482 41.4735 32.6482 39.1461C32.6482 36.6694 34.5538 34.6551 36.8964 34.6551C39.2391 34.6551 41.1447 36.6694 41.1447 39.1462C41.1447 40.7988 39.4205 43.0528 38.2789 44.3655H46.6068C47.6106 44.3655 48.4274 45.1824 48.4274 46.1862C48.4274 47.19 47.6106 48.0069 46.6068 48.0069H38.1102C37.7758 48.0069 37.5034 48.2788 37.5034 48.6138C37.5034 48.9488 37.7758 49.2207 38.1102 49.2207H53.7208C52.5793 47.9079 50.8551 45.654 50.8551 44.0013C50.8551 41.5245 52.7608 39.5103 55.1033 39.5103C57.446 39.5103 59.3516 41.5245 59.3516 44.0013C59.3516 46.3287 55.9256 49.8591 55.5348 50.2542C55.5348 50.2542 55.5343 50.2548 55.5336 50.2548C55.4784 50.3107 55.4116 50.3562 55.3382 50.3871C55.2647 50.4181 55.1853 50.4345 55.1033 50.4345H38.1102C37.1064 50.4345 36.2896 49.6176 36.2896 48.6138C36.2896 47.61 37.1064 46.7931 38.1102 46.7931H46.6068C46.9418 46.7931 47.2137 46.5212 47.2137 46.1862C47.2137 45.8512 46.9418 45.5793 46.6068 45.5793ZM50.2481 35.8689H42.9654C42.6304 35.8689 42.3585 35.5977 42.3585 35.2621C42.3585 34.9265 42.6304 34.6552 42.9654 34.6552H50.2481C50.5831 34.6552 50.855 34.9265 50.855 35.2621C50.855 35.5977 50.5832 35.8689 50.2481 35.8689ZM50.8551 37.6896V40.1172C50.8551 40.4528 50.5832 40.7241 50.2482 40.7241H47.8206C47.4856 40.7241 47.2137 40.4528 47.2137 40.1172V37.6896C47.2137 37.354 47.4856 37.0828 47.8206 37.0828H50.2481C50.5832 37.0827 50.8551 37.354 50.8551 37.6896ZM42.9654 37.0827H45.3929C45.7279 37.0827 45.9998 37.3539 45.9998 37.6896V40.1172C45.9998 40.4528 45.7279 40.7241 45.3929 40.7241H42.9654C42.6304 40.7241 42.3585 40.4528 42.3585 40.1172V37.6896C42.3585 37.354 42.6304 37.0827 42.9654 37.0827ZM52.6758 62.5724H53.8896C54.2246 62.5724 54.4965 62.8443 54.4965 63.1793C54.4965 63.5142 54.2246 63.7861 53.8896 63.7861H38.1102C37.7758 63.7861 37.5034 63.5142 37.5034 63.1793C37.5034 62.8443 37.7758 62.5724 38.1102 62.5724H39.3241H52.6758ZM62.993 55.289C62.993 55.9591 62.4486 56.5034 61.7786 56.5034H49.0344H42.9654H30.2212C29.5518 56.5034 29.0068 55.9591 29.0068 55.289V52.862H30.8275H61.1724H62.993V55.289H62.993Z" fill="white"></path><path d="M55.7102 43.1517H54.4963V44.3655H55.7102V43.1517Z" fill="white"></path><path d="M55.1034 40.7241C53.4302 40.7241 52.0688 42.1946 52.0688 44.0014C52.0688 45.2413 53.7827 47.5147 55.1027 48.9464C56.2279 47.7211 58.1378 45.3584 58.1378 44.0014C58.1379 42.194 56.7765 40.7241 55.1034 40.7241ZM56.924 44.3655C56.924 45.0349 56.3797 45.5793 55.7102 45.5793H54.4964C53.827 45.5793 53.2826 45.035 53.2826 44.3655V43.1517C53.2826 42.4823 53.827 41.9379 54.4964 41.9379H55.7102C56.3796 41.9379 56.924 42.4822 56.924 43.1517V44.3655Z" fill="white"></path></svg>