<svg xmlns="http://www.w3.org/2000/svg" width="105" height="95" viewBox="0 0 105 95" fill="none"><path d="M91.9687 28.8971C98.2236 47.4729 74.8624 76.5177 54.5576 84.2166C36.9361 90.1502 17.5803 79.9017 11.3255 61.3259C5.07058 42.7502 14.2851 22.8814 31.9067 16.9478C49.5283 11.0142 85.7138 10.3214 91.9687 28.8971Z" fill="#16163F"></path><path d="M46.3698 39.3141V44.5302H48.7159V39.3141C49.8034 38.855 50.5686 37.7777 50.5686 36.525C50.5686 34.8566 49.2113 33.4993 47.5429 33.4993C45.8744 33.4993 44.5171 34.8566 44.5171 36.525C44.5171 37.7777 45.2824 38.855 46.3698 39.3141V39.3141Z" fill="white"></path><path d="M27 46.876V66.9998H67V46.876H27ZM38.4309 62.0937H33.284V51.7561H35.6301V59.7476H38.4308V62.0937H38.4309ZM43.1374 62.0253H40.7914V51.6809H43.1374V62.0253ZM50.1148 61.8609H48.0784L44.5593 51.6658H47.0391L49.0731 57.5544L51.0282 51.6658H53.5556L50.1148 61.8609ZM60.716 54.0635H57.3765V55.6801H60.4697V58.0262H57.3765V59.6427H60.7159V61.9888H55.0305V51.7174H60.7159V54.0635H60.716Z" fill="white"></path><path d="M51.3643 41.3617L53.0231 43.0205L53.8525 42.1911C56.9768 39.0668 56.9768 33.9832 53.8525 30.8589L53.0231 30.0294L51.3643 31.6883L52.1937 32.5178C54.4032 34.7274 54.4032 38.3226 52.1937 40.5322L51.3643 41.3617Z" fill="white"></path><path d="M41.2332 42.191L42.0626 43.0205L43.7215 41.3616L42.8921 40.5322C41.8217 39.4618 41.2323 38.0388 41.2323 36.525C41.2323 35.0114 41.8217 33.5882 42.8921 32.5178L43.7215 31.6884L42.0626 30.0295L41.2332 30.859C39.7197 32.3725 38.8862 34.3847 38.8862 36.5251C38.8862 38.6653 39.7197 40.6776 41.2332 42.191V42.191Z" fill="white"></path><path d="M56.0231 43.5615L55.1937 44.3909L56.8525 46.0499L57.6819 45.2204C62.4766 40.4257 62.4766 32.6242 57.6819 27.8295L56.8525 27L55.1936 28.6589L56.023 29.4883C59.903 33.3684 59.903 39.6815 56.0231 43.5615V43.5615Z" fill="white"></path><path d="M38.233 46.0499L39.8919 44.391L39.0624 43.5615C37.1829 41.6819 36.1478 39.183 36.1478 36.5249C36.1478 33.8669 37.1829 31.3679 39.0624 29.4884L39.8918 28.659L38.233 27L37.4036 27.8295C35.0809 30.1521 33.8018 33.2402 33.8018 36.5249C33.8018 39.8096 35.0809 42.8977 37.4036 45.2204L38.233 46.0499Z" fill="white"></path></svg>