<svg xmlns="http://www.w3.org/2000/svg" width="105" height="95" viewBox="0 0 105 95" fill="none"><path d="M91.9687 28.8971C98.2236 47.4729 74.8624 76.5177 54.5576 84.2166C36.9361 90.1502 17.5803 79.9017 11.3255 61.3259C5.07058 42.7502 14.2851 22.8814 31.9067 16.9478C49.5283 11.0142 85.7138 10.3214 91.9687 28.8971Z" fill="#16163F"></path><path d="M28.1875 53.0117H32.6064L35.6427 40.8667C35.7665 40.3712 36.2118 40.0234 36.7227 40.0234H37.0938V37.6009C36.1118 37.1705 35.4238 36.1897 35.4238 35.0508C35.4238 33.5162 36.6724 32.2676 38.207 32.2676C39.7417 32.2676 40.9902 33.5162 40.9902 35.0508C40.9902 36.1897 40.3022 37.1705 39.3203 37.6009V40.0234H39.6914C40.2023 40.0234 40.6476 40.3712 40.7714 40.8667L43.8077 53.0117H49.3398V66H44.8867V58.9492C44.8867 58.3344 44.3883 57.8359 43.7734 57.8359H27.0742V54.125C27.0742 53.5102 27.5727 53.0117 28.1875 53.0117ZM39.8382 46.314L37.3846 47.3655L40.7802 50.082L39.8382 46.314ZM38.8222 42.25H37.5919L36.8627 45.1669L39.2912 44.126L38.8222 42.25ZM35.8976 49.0274L34.9015 53.0117H40.878L35.8976 49.0274Z" fill="white"></path><path d="M33.7539 60.0625H31.5273V66H33.7539V60.0625Z" fill="white"></path><path d="M29.3008 60.0625H27.0742V66H29.3008V60.0625Z" fill="white"></path><path d="M38.207 60.0625H35.9805V66H38.207V60.0625Z" fill="white"></path><path d="M42.6602 60.0625H40.4336V66H42.6602V60.0625Z" fill="white"></path><path d="M59.3594 60.0625H57.1328V66H59.3594V60.0625Z" fill="white"></path><path d="M52.6797 44.4766H63.8125C64.4273 44.4766 64.9258 44.975 64.9258 45.5898V64.8867C64.9258 65.5015 64.4273 66 63.8125 66H61.5859V58.9492C61.5859 58.3344 61.0875 57.8359 60.4727 57.8359H56.0195C55.4047 57.8359 54.9062 58.3344 54.9062 58.9492V66H51.5664V45.5898C51.5664 44.975 52.0649 44.4766 52.6797 44.4766ZM56.0195 55.6094H60.4727C61.0875 55.6094 61.5859 55.1109 61.5859 54.4961C61.5859 53.8813 61.0875 53.3828 60.4727 53.3828H56.0195C55.4047 53.3828 54.9062 53.8813 54.9062 54.4961C54.9062 55.1109 55.4047 55.6094 56.0195 55.6094ZM56.0195 51.1563H60.4727C61.0875 51.1563 61.5859 50.6578 61.5859 50.043C61.5859 49.4281 61.0875 48.9297 60.4727 48.9297H56.0195C55.4047 48.9297 54.9062 49.4281 54.9062 50.043C54.9062 50.6578 55.4047 51.1563 56.0195 51.1563Z" fill="white"></path><path d="M33.5468 39.0172C33.3879 39.096 33.2194 39.1332 33.0533 39.1332C32.6436 39.1332 32.2492 38.9061 32.0549 38.514C30.9804 36.3456 30.9804 33.7564 32.0549 31.5879C32.3279 31.0369 32.996 30.8116 33.5467 31.0847C34.0977 31.3576 34.323 32.0255 34.05 32.5765C33.2822 34.1259 33.2822 35.976 34.05 37.5254C34.323 38.0763 34.0977 38.7442 33.5468 39.0172V39.0172Z" fill="white"></path><path d="M30.488 41.9299C30.3036 42.0463 30.0981 42.1018 29.8949 42.1018C29.5255 42.1018 29.1641 41.9181 28.9524 41.5825C26.4483 37.6147 26.4483 32.487 28.9524 28.5192C29.2805 27.9992 29.9681 27.8437 30.488 28.1718C31.008 28.5 31.1635 29.1875 30.8354 29.7074C28.7868 32.9534 28.7868 37.1482 30.8354 40.3941C31.1635 40.9142 31.008 41.6017 30.488 41.9299Z" fill="white"></path><path d="M43.3607 39.1332C43.1946 39.1332 43.0262 39.0959 42.8673 39.0172C42.3163 38.7442 42.0911 38.0762 42.3641 37.5253C43.1319 35.9759 43.1319 34.1258 42.3641 32.5764C42.0911 32.0255 42.3163 31.3576 42.8673 31.0846C43.4181 30.8115 44.0862 31.0368 44.3591 31.5879C45.4337 33.7563 45.4337 36.3455 44.3591 38.514C44.1648 38.906 43.7705 39.1332 43.3607 39.1332V39.1332Z" fill="white"></path><path d="M46.5193 42.1018C46.3161 42.1018 46.1106 42.0463 45.9262 41.9298C45.4062 41.6017 45.2507 40.9142 45.5788 40.3943C47.6274 37.1483 47.6274 32.9535 45.5788 29.7076C45.2507 29.1877 45.4062 28.5001 45.9262 28.172C46.4461 27.8438 47.1336 27.9993 47.4618 28.5193C49.9659 32.4871 49.9658 37.6148 47.4618 41.5826C47.25 41.918 46.8887 42.1018 46.5193 42.1018V42.1018Z" fill="white"></path></svg>