<svg xmlns="http://www.w3.org/2000/svg" width="550" height="512" viewBox="0 0 550 512"><g id="Favicon_transparent_V-4" data-name="Favicon transparent V-4" transform="translate(-926 -829)"><rect id="Rectangle_5" data-name="Rectangle 5" width="550" height="512" rx="30" transform="translate(926 829)" fill="#2867b2"></rect><path id="Telecomm" d="M32.9,413h83.6V257.9c0-7.7,1.1-15.95,3.3-20.9,5.5-15.4,19.25-31.35,42.35-31.35,30.25,0,42.35,23.65,42.35,58.3V413h83.6V253.5c0-79.2-41.25-115.5-96.25-115.5-44.55,0-72.05,25.85-83.05,42.9h-1.65l-3.85-36.85H30.7c1.1,23.65,2.2,52.25,2.2,85.8Z" transform="translate(1154.45 857.7)" fill="#d2b85d"></path><path id="Telecomm-2" data-name="Telecomm" d="M-42.9,0H41.25V-300.3h101.2v-70.4h-284.9v70.4H-42.9Z" transform="translate(1101.45 1270.7)" fill="#fff"></path></g></svg>