<svg xmlns="http://www.w3.org/2000/svg" width="217" height="207" viewBox="0 0 217 207" fill="none"><path d="M216.313 127.049V206.899H170.019V132.4C170.019 113.695 163.335 100.92 146.573 100.92C133.781 100.92 126.182 109.52 122.826 117.848C121.607 120.824 121.293 124.957 121.293 129.131V206.895H74.9949C74.9949 206.895 75.6163 80.7195 74.9949 67.6586H121.297V87.3898C121.203 87.5451 121.072 87.697 120.989 87.8455H121.297V87.3898C127.449 77.923 138.421 64.3891 163.02 64.3891C193.478 64.3891 216.313 84.2894 216.313 127.049ZM26.5629 0.541626C10.7262 0.541626 0.365234 10.9372 0.365234 24.5953C0.365234 37.9635 10.4259 48.6594 25.9553 48.6594H26.2557C42.4031 48.6594 52.443 37.9635 52.443 24.5953C52.1358 10.9372 42.4031 0.541626 26.5629 0.541626ZM3.11689 206.899H49.3979V67.6586H3.11689V206.899Z" fill="#007AB9"></path></svg>