<svg xmlns="http://www.w3.org/2000/svg" width="151" height="150" viewBox="0 0 151 150" fill="none"><circle cx="75.3184" cy="75" r="75" fill="white"></circle><path d="M75.5 39.125C67.9358 39.1338 60.684 42.1064 55.3352 47.3907C49.9865 52.6749 46.9777 59.8394 46.9688 67.3125C46.9597 73.4195 48.9789 79.3608 52.7165 84.225C52.7165 84.225 53.4947 85.2372 53.6217 85.3833L75.5 110.875L97.3887 85.3704C97.5028 85.2346 98.2835 84.225 98.2835 84.225L98.2861 84.2173C102.022 79.3553 104.04 73.4167 104.031 67.3125C104.022 59.8394 101.014 52.6749 95.6648 47.3907C90.3161 42.1064 83.0642 39.1338 75.5 39.125V39.125ZM75.5 77.5625C73.448 77.5625 71.4421 76.9613 69.736 75.8351C68.0298 74.7088 66.7 73.1079 65.9148 71.235C65.1295 69.3621 64.9241 67.3011 65.3244 65.3128C65.7247 63.3245 66.7128 61.4981 68.1638 60.0647C69.6148 58.6312 71.4634 57.6549 73.476 57.2594C75.4885 56.864 77.5746 57.0669 79.4704 57.8427C81.3661 58.6185 82.9865 59.9323 84.1265 61.6179C85.2665 63.3035 85.875 65.2852 85.875 67.3125C85.8716 70.0299 84.7774 72.6351 82.8325 74.5566C80.8875 76.4781 78.2506 77.5591 75.5 77.5625V77.5625Z" fill="#FE0000"></path></svg>