<svg xmlns="http://www.w3.org/2000/svg" width="150" height="150" viewBox="0 0 150 150" fill="none"><circle cx="75" cy="75" r="75" fill="white"></circle><path d="M74.5001 137.975C109.011 137.975 136.988 109.999 136.988 75.4876C136.988 40.9767 109.011 13 74.5001 13C39.9891 13 12.0125 40.9767 12.0125 75.4876C12.0125 109.999 39.9891 137.975 74.5001 137.975Z" fill="#F0F1F1"></path><path d="M88.1607 89.371C88.9527 91.0539 89.4724 92.8357 89.9673 94.6175C90.5613 96.7211 91.1799 98.8246 91.7739 100.928C92.7885 104.517 93.8032 108.427 92.3926 111.867C91.5759 113.846 90.0663 115.43 88.4825 116.89C86.7501 118.474 84.9188 119.959 82.9885 121.32C81.3057 122.508 79.5238 123.597 77.544 124.191C75.4157 124.81 73.1637 124.81 70.9364 124.76C69.5011 124.735 68.0162 124.686 66.7293 124.042C65.6652 123.523 64.8238 122.607 64.1556 121.617C61.7056 117.954 61.6313 113.252 61.6313 108.847C61.6561 102.091 61.6808 95.3352 61.6808 88.5544C61.6808 87.317 61.6808 86.0548 62.0026 84.8422C62.9925 81.1548 66.7788 78.8533 70.5405 78.1851C72.0253 77.9129 73.5844 77.8387 75.0693 78.1604C76.4551 78.4573 77.742 79.1255 78.9794 79.8432C82.8153 82.1447 86.2552 85.3372 88.1607 89.371Z" fill="#E6E9EE"></path><path d="M74.4999 57.0259C69.3524 57.0259 65.1948 67.0981 65.1948 73.6315C65.1948 77.4426 66.6302 80.8578 68.8575 83.0108C69.1297 82.9861 69.5504 82.9366 69.6494 82.9366C70.0701 82.9366 70.5403 82.9861 70.9363 83.1098C71.3322 83.2336 71.7529 83.3821 72.1241 83.58C72.1984 83.6295 72.4459 83.778 72.6191 83.9018C72.6933 83.9265 72.7676 83.976 72.8666 84.0255C73.1388 84.1492 73.3615 84.2977 73.609 84.4709C73.807 84.6194 73.9802 84.7432 74.1782 84.8669C74.3019 84.9411 74.4009 85.0154 74.4999 85.0896H74.5247C74.7721 84.8669 75.1434 84.6689 75.4156 84.4957C75.5888 84.3967 75.7373 84.2977 75.9353 84.2235C76.1828 84.1245 76.3312 84.0255 76.455 83.976C76.554 83.778 77.6676 83.4068 77.7418 83.3821C78.41 83.1593 79.0287 83.2088 79.7217 83.3078C79.7464 83.3078 79.7712 83.3078 79.7959 83.3326C82.2459 81.2043 83.8545 77.6406 83.8545 73.6068C83.805 67.1229 79.6474 57.0259 74.4999 57.0259Z" fill="#F9B54C"></path><path d="M47.2283 129.586C47.352 130.303 47.4263 131.046 47.5005 131.863C42.3283 129.388 37.552 126.22 33.2954 122.458C35.6712 94.9144 40.4227 87.1685 40.4227 87.1685C40.4227 87.1685 40.4227 87.1685 40.4475 87.2179L49.7773 102.314L45.9909 125.527C45.9909 125.527 45.9909 125.527 45.9909 125.552C46.5601 126.567 46.9561 127.952 47.2283 129.586Z" fill="#324A5E"></path><path d="M76.9499 137.926C76.1333 137.95 75.3166 137.975 74.4999 137.975C73.6833 137.975 72.8666 137.95 72.0499 137.926C63.3883 137.604 55.1968 135.5 47.7973 131.986C47.6241 131.095 47.4261 130.303 47.2281 129.586C46.6094 127.235 46.065 125.725 45.9907 125.527V125.502C47.7973 105.853 40.8432 88.1583 40.472 87.1931C40.472 87.1683 40.4473 87.1436 40.4473 87.1436C42.4023 84.8668 51.5589 82.6395 57.3746 81.4022C60.2453 80.8082 62.3241 80.437 62.3241 80.437L62.1756 83.6047L62.2746 84.1244L64.2297 96.5477C64.2297 96.5477 69.1544 108.278 72.9408 118.029C72.9408 118.053 72.9656 118.078 72.9656 118.078C73.51 119.538 74.0545 120.949 74.5494 122.285C74.5989 122.409 74.6237 122.533 74.6732 122.656C74.8464 123.176 75.0444 123.696 75.2176 124.191C75.2671 124.339 75.3166 124.463 75.3661 124.611C75.4651 124.908 75.5888 125.205 75.6631 125.502C76.1085 126.764 76.4055 128.497 76.6282 130.551C76.7767 131.887 76.8509 133.397 76.9252 134.981C76.9252 135.946 76.9499 136.911 76.9499 137.926Z" fill="#2B3B4E"></path><path d="M64.3783 75.2649C64.3783 75.2649 70.9116 117.361 75.6384 125.527C75.6384 125.527 61.953 117.558 56.5828 91.7715L60.6166 90.3857L54.7515 85.5104C54.7515 85.5104 57.8202 78.9028 64.3783 75.2649Z" fill="#324A5E"></path><path d="M74.5 85.0896C74.5 85.0896 67.7686 80.4865 64.6999 89.0987C64.6999 89.0987 63.1903 74.4729 65.3681 71.7754C65.3681 71.8001 67.5459 79.2492 74.5 85.0896Z" fill="white"></path><path d="M103.034 125.527L99.2476 102.289L108.577 87.1933C108.577 87.1685 108.602 87.1438 108.602 87.1438C108.602 87.1438 113.354 94.8898 115.729 122.434C111.473 126.171 106.697 129.338 101.524 131.838C101.599 131.046 101.673 130.279 101.797 129.561C102.044 127.953 102.44 126.567 103.034 125.527Z" fill="#2B3B4E"></path><path d="M108.553 87.2181C108.181 88.1832 101.227 105.878 103.034 125.527C103.034 125.527 103.034 125.527 103.034 125.552C102.96 125.75 102.39 127.235 101.797 129.611C101.623 130.328 101.425 131.145 101.227 132.011C93.8278 135.525 85.6364 137.604 76.9747 137.951C76.1581 137.975 75.3414 138 74.5247 138C73.708 138 72.8914 137.975 72.0747 137.951C72.1242 132.679 72.4954 128.126 73.3863 125.552C73.4606 125.305 73.5596 125.057 73.6586 124.81C73.708 124.636 73.7823 124.438 73.8565 124.265C74.0298 123.77 74.203 123.275 74.401 122.731C74.4505 122.607 74.5 122.483 74.5495 122.36C75.0444 121.023 75.5889 119.588 76.1333 118.128C76.1333 118.128 76.1333 118.128 76.1333 118.103C79.8949 108.328 84.8445 96.6221 84.8445 96.6221L86.4531 86.4756L86.8985 83.6792L86.75 80.5115C86.75 80.5115 88.8288 80.8827 91.7243 81.4766C97.5647 82.714 106.672 84.9413 108.652 87.2181C108.577 87.1686 108.577 87.1933 108.553 87.2181Z" fill="#324A5E"></path><path d="M84.6217 75.2649C84.6217 75.2649 78.0884 117.361 73.3616 125.527C73.3616 125.527 87.047 117.558 92.4172 91.7715L88.3834 90.3857L94.2485 85.5104C94.2485 85.5104 91.1798 78.9028 84.6217 75.2649Z" fill="#2B3B4E"></path><path d="M74.5 85.0896C74.5 85.0896 81.2313 80.4865 84.3 89.0987C84.3 89.0987 85.8096 74.4729 83.6319 71.7754C83.6319 71.8001 81.4541 79.2492 74.5 85.0896Z" fill="white"></path><path d="M77.7173 135.154C79.0567 135.154 80.1425 134.068 80.1425 132.729C80.1425 131.389 79.0567 130.303 77.7173 130.303C76.3778 130.303 75.292 131.389 75.292 132.729C75.292 134.068 76.3778 135.154 77.7173 135.154Z" fill="#2B3B4E"></path><path d="M92.9367 53.5118C91.6746 56.63 88.5811 59.9214 86.6508 59.3522C84.7205 58.783 84.6958 54.6007 85.9826 51.4825C87.2448 48.3643 89.3483 47.5229 91.2539 48.0673C93.1842 48.6365 94.2236 50.3936 92.9367 53.5118Z" fill="#F9B54C"></path><path d="M56.0629 53.5118C57.325 56.63 60.4185 59.9214 62.3488 59.3522C64.2791 58.783 64.3038 54.6007 63.017 51.4825C61.7548 48.3643 59.6513 47.5229 57.7457 48.0673C55.8154 48.6365 54.776 50.3936 56.0629 53.5118Z" fill="#F9B54C"></path><path d="M74.5 73.0871C82.7826 73.0871 89.497 64.3894 89.497 53.6602C89.497 42.9311 82.7826 34.2334 74.5 34.2334C66.2173 34.2334 59.5029 42.9311 59.5029 53.6602C59.5029 64.3894 66.2173 73.0871 74.5 73.0871Z" fill="#FFD05B"></path><path d="M82.2214 47.7455L79.3259 36.0646C79.3259 36.0646 83.1371 31.5111 84.1765 31.6596C85.1911 31.808 90.982 37.9454 90.982 37.9454V46.6566V50.245L89.3982 53.4374L83.1618 50.7152L82.2214 47.7455Z" fill="#FFD05B"></path><path d="M70.9612 37.3514L61.5571 35.5696L58.3894 38.7125L57.845 45.6171L59.6515 53.2146L71.7036 49.9479L70.9612 37.3514Z" fill="#FFD05B"></path><path d="M72.0747 26.0667C72.0747 26.0667 76.8757 18.0485 85.8591 26.0667C85.8591 26.0667 83.3843 25.6955 82.1964 26.0667C82.1964 26.0667 97.1687 27.0814 93.2833 44.3057C93.2833 44.3057 93.4318 49.0325 89.398 53.4623C89.398 53.4623 94.0505 33.689 81.8252 38.49C81.8252 38.49 73.8812 42.9693 68.1893 38.292C68.1893 38.292 57.2509 35.1244 59.6514 53.1901C59.6514 53.1901 46.9311 30.3233 60.9877 27.4279C60.9877 27.4279 64.6504 19.4839 78.0636 21.5627C78.0636 21.5627 73.3615 21.5627 72.0747 26.0667Z" fill="#324A5E"></path></svg>