<svg xmlns="http://www.w3.org/2000/svg" width="200" height="80" viewBox="0 0 200 80" fill="none">
  <!-- Emblaze - Mobile video technology -->
  <path d="M100 6 Q106 16 108 22 Q112 18 110 28 Q114 24 112 34 Q110 40 100 40 Q90 40 88 34 Q86 24 90 28 Q88 18 92 22 Q94 16 100 6 Z" fill="#E8430C"/>
  <path d="M100 14 Q104 20 105 24 Q107 22 106 30 Q105 36 100 36 Q95 36 94 30 Q93 22 95 24 Q96 20 100 14 Z" fill="#F39C12" opacity="0.8"/>
  <!-- Company name -->
  <text x="100" y="58" text-anchor="middle" font-family="Arial, Helvetica, sans-serif" font-size="20" font-weight="700" fill="#E8430C" letter-spacing="3">EMBLAZE</text>
</svg>
