<svg xmlns="http://www.w3.org/2000/svg" width="200" height="80" viewBox="0 0 200 80">
  <!-- WhatsApp chat bubble with phone -->
  <g transform="translate(100,24)">
    <!-- Speech bubble -->
    <path d="M0,-18 C10,-18 18,-10 18,0 C18,10 10,18 0,18 C-4,18 -8,16 -11,14 L-18,18 L-14,12 C-17,8 -18,4 -18,0 C-18,-10 -10,-18 0,-18 Z" fill="#25D366"/>
    <!-- Phone handset icon -->
    <path d="M-6,-6 C-6,-6 -8,-4 -8,-2 C-8,2 -2,8 2,8 C4,8 6,6 6,6 L4,2 L2,4 C0,4 -4,0 -4,-2 L-2,-4 Z" fill="white" stroke="white" stroke-width="0.5"/>
  </g>
  <!-- WhatsApp wordmark -->
  <text x="100" y="66" text-anchor="middle" font-family="'Helvetica Neue', Arial, sans-serif" font-size="22" font-weight="600" fill="#25D366">WhatsApp</text>
</svg>
